<svg width="21" height="16" viewBox="0 0 21 16" fill="none" xmlns="http://www.w3.org/2000/svg">
<path d="M20.8353 1.90838C20.7715 1.83003 20.691 1.76674 20.5997 1.72305C20.5084 1.67936 20.4085 1.65635 20.3072 1.65569H6.02804L6.47383 3.02159H19.4087L17.5775 11.217H7.28998L4.1557 1.3347C4.1218 1.22984 4.06293 1.1347 3.98411 1.0574C3.90529 0.980099 3.80886 0.922933 3.70305 0.890778L0.891112 0.0302571C0.80465 0.00379947 0.7138 -0.00544049 0.623751 0.00306465C0.533702 0.0115698 0.446217 0.0376535 0.366291 0.0798265C0.204874 0.164999 0.084045 0.310536 0.0303859 0.484421C-0.0232733 0.658306 -0.00536731 0.846296 0.0801647 1.00703C0.165697 1.16777 0.311848 1.28809 0.486468 1.34153L2.94863 2.09278L6.09662 11.9956L4.97185 12.9108L4.88269 12.9995C4.60447 13.3188 4.44677 13.7247 4.43676 14.1473C4.42674 14.5699 4.56504 14.9828 4.82782 15.3148C5.01475 15.5411 5.25229 15.7208 5.52144 15.8394C5.79058 15.958 6.08386 16.0122 6.37782 15.9977H17.8244C18.0063 15.9977 18.1808 15.9258 18.3094 15.7977C18.438 15.6696 18.5103 15.4959 18.5103 15.3148C18.5103 15.1336 18.438 14.9599 18.3094 14.8318C18.1808 14.7038 18.0063 14.6318 17.8244 14.6318H6.26808C6.18911 14.6291 6.11216 14.6062 6.04468 14.5652C5.97719 14.5243 5.92145 14.4667 5.88284 14.3981C5.84423 14.3294 5.82405 14.252 5.82426 14.1733C5.82446 14.0946 5.84504 14.0173 5.88401 13.9488L7.53688 12.5829H18.1262C18.2848 12.5868 18.4397 12.5358 18.5648 12.4387C18.6898 12.3416 18.7772 12.2043 18.8121 12.0502L20.9862 2.48889C21.007 2.38707 21.0043 2.28186 20.9781 2.18126C20.952 2.08066 20.9031 1.98733 20.8353 1.90838Z" fill="#1C1A1A" fill-opacity="0.86"/>
</svg>
